<svg xmlns="http://www.w3.org/2000/svg" viewBox="0 0 249 60">
  <rect x="2" y="2" width="86" height="56" rx="3" style="fill: none;stroke: #000;stroke-width: 4px"/>
  <g style="isolation: isolate">
    <path d="M46.69,47l-2.07-6H34.22l-2.07,6H23.83L35.57,15.5h7.65L55,47ZM36.52,34.36h5.8L39.4,26Z" style="fill: #14121f"/>
    <path d="M57.48,15.14h7.75v6.79H57.48ZM57.62,47V24.32H65V47Z" style="fill: #14121f"/>
  </g>
  <g style="isolation: isolate">
    <path d="M113.82,47.36a12.76,12.76,0,0,1-8.35-2.93,10,10,0,0,1-3.89-7.19l6.93-2a5.83,5.83,0,0,0,1.89,3.87,5.44,5.44,0,0,0,3.78,1.53,4.77,4.77,0,0,0,2.84-.77,2.38,2.38,0,0,0,1.08-2,2.2,2.2,0,0,0-.86-1.75A6.79,6.79,0,0,0,115,34.89c-.91-.29-1.93-.6-3.06-.89a24.26,24.26,0,0,1-3.35-1.17,16.26,16.26,0,0,1-3-1.71,7.23,7.23,0,0,1-2.23-2.77,9.52,9.52,0,0,1-.85-4.17,7.88,7.88,0,0,1,3.31-6.45,12.51,12.51,0,0,1,8-2.59,14.43,14.43,0,0,1,8.08,2.25,9.49,9.49,0,0,1,4.3,5.9l-7.2,3a6.12,6.12,0,0,0-1.85-3.22,4.85,4.85,0,0,0-3.33-1.19,4.1,4.1,0,0,0-2.4.61,1.88,1.88,0,0,0-.88,1.64,1.85,1.85,0,0,0,1.17,1.62,9.34,9.34,0,0,0,2.9.92,25.8,25.8,0,0,1,3.76,1,21,21,0,0,1,3.76,1.67,7.8,7.8,0,0,1,2.9,3.12,10.62,10.62,0,0,1,1.17,5.15,8.59,8.59,0,0,1-3.4,7.07A13.92,13.92,0,0,1,113.82,47.36Z" style="fill: #14121f"/>
    <path d="M140.37,47.36a11.27,11.27,0,0,1-11.74-11.7,11.35,11.35,0,0,1,3.3-8.41A11.49,11.49,0,0,1,140.37,24a13,13,0,0,1,7.78,2.21,8.58,8.58,0,0,1,3.6,6.07l-7.24,1.39a3.86,3.86,0,0,0-1.26-2.47,3.76,3.76,0,0,0-2.56-.9,3.91,3.91,0,0,0-3.18,1.46,6.09,6.09,0,0,0-1.19,3.94,6.09,6.09,0,0,0,1.19,3.94,3.91,3.91,0,0,0,3.18,1.46,3.47,3.47,0,0,0,3.73-3l7.25,1.49A8.4,8.4,0,0,1,148,45.25,13.1,13.1,0,0,1,140.37,47.36Z" style="fill: #14121f"/>
    <path d="M171.42,31.47a6.53,6.53,0,0,0-2.84-.54,5.07,5.07,0,0,0-4,1.9C163.5,34.08,163,36.13,163,39v8h-7.42V24.32H163v3.73a6.46,6.46,0,0,1,2.63-2.9A7.41,7.41,0,0,1,169.53,24a6.62,6.62,0,0,1,2.34.36Z" style="fill: #14121f"/>
    <path d="M196.26,35.21q0,1.62-.09,2.7H180.46a4.32,4.32,0,0,0,4.64,3.33,4.41,4.41,0,0,0,2.41-.65,3.25,3.25,0,0,0,1.37-1.83l7,1.94a8.8,8.8,0,0,1-4,4.91,13.38,13.38,0,0,1-7,1.75,12.56,12.56,0,0,1-5.27-1.06,9.75,9.75,0,0,1-3.73-2.79,12.7,12.7,0,0,1-2.14-3.76,11.64,11.64,0,0,1-.75-4.09,13.11,13.11,0,0,1,.66-4.12,12.56,12.56,0,0,1,1.95-3.73A9.21,9.21,0,0,1,179.18,25a12.14,12.14,0,0,1,5.2-1.06A13.2,13.2,0,0,1,189.82,25a9.42,9.42,0,0,1,3.74,2.79,12.9,12.9,0,0,1,2,3.62A10.94,10.94,0,0,1,196.26,35.21Zm-15.84-2.43h7.83a3.61,3.61,0,0,0-1.06-2.48,3.85,3.85,0,0,0-2.81-.94Q181.23,29.36,180.42,32.78Z" style="fill: #14121f"/>
    <path d="M222.13,35.21q0,1.62-.09,2.7h-15.7A4.31,4.31,0,0,0,211,41.24a4.38,4.38,0,0,0,2.41-.65,3.2,3.2,0,0,0,1.37-1.83l7,1.94a8.8,8.8,0,0,1-4,4.91,13.4,13.4,0,0,1-7,1.75,12.59,12.59,0,0,1-5.27-1.06,9.83,9.83,0,0,1-3.73-2.79,13.15,13.15,0,0,1-2.14-3.76,11.86,11.86,0,0,1-.74-4.09,13.39,13.39,0,0,1,.65-4.12,12.83,12.83,0,0,1,2-3.73A9.14,9.14,0,0,1,205.06,25,12.06,12.06,0,0,1,210.25,24,13.25,13.25,0,0,1,215.7,25a9.31,9.31,0,0,1,3.73,2.79,12.94,12.94,0,0,1,2,3.62A11.17,11.17,0,0,1,222.13,35.21Zm-15.84-2.43h7.84a3.7,3.7,0,0,0-1.06-2.48,3.89,3.89,0,0,0-2.82-.94Q207.1,29.36,206.29,32.78Z" style="fill: #14121f"/>
    <path d="M225.87,47V24.32h7.42v2.61q2.21-3,6.66-3a8.34,8.34,0,0,1,6.12,2.27,8.15,8.15,0,0,1,2.3,6.06V47h-7.43V34.31a3.86,3.86,0,0,0-1-2.74,3.35,3.35,0,0,0-2.55-1c-2.76,0-4.14,2.18-4.14,6.52V47Z" style="fill: #14121f"/>
  </g>
</svg>
