<svg width="44" height="15" viewBox="0 0 44 15" fill="none" xmlns="http://www.w3.org/2000/svg">
<path d="M17.6034 0.706299L15.4453 14.1358H18.8947L21.0515 0.706299H17.6034ZM28.0081 6.17673C26.8027 5.58146 26.0637 5.17971 26.0637 4.57088C26.0784 4.01732 26.6886 3.45021 28.0511 3.45021C29.1718 3.42206 29.9955 3.68543 30.6204 3.94747L30.9334 4.08718L31.4024 1.27739C30.721 1.01403 29.6407 0.723836 28.3064 0.723836C24.9 0.723836 22.5014 2.49489 22.4865 5.0279C22.4584 6.89712 24.2038 7.93437 25.51 8.55661C26.8444 9.19491 27.2986 9.60875 27.2986 10.1759C27.2838 11.0466 26.2196 11.4483 25.2266 11.4483C23.8506 11.4483 23.1115 11.2414 21.9895 10.7562L21.5353 10.5493L21.0529 13.4694C21.8632 13.8295 23.3534 14.1466 24.9001 14.1628C28.5202 14.1628 30.8758 12.4185 30.9054 9.71899C30.9172 8.23812 29.9968 7.10389 28.0081 6.17673ZM40.2456 0.747859H37.5768C36.7544 0.747859 36.1296 0.984404 35.7735 1.8283L30.6497 14.1358H34.2698L35.2668 11.4712H39.3169L39.8342 14.1466H43.0271L40.2456 0.747859ZM36.2707 8.7821C36.3406 8.78888 37.6602 4.43234 37.6602 4.43234L38.7111 8.7821C38.7111 8.7821 36.9521 8.7821 36.2707 8.7821ZM12.563 0.706299L9.18345 9.83041L8.8153 8.03105C8.19041 5.95492 6.23129 3.69884 4.04492 2.57816L7.13959 14.1224H10.7893L16.2127 0.707772H12.563V0.706299Z" fill="#D5D5D4"/>
<path d="M7.67674 2.43907C7.41337 1.41507 6.57346 0.724455 5.43274 0.709717H0.0805105L0.0253906 0.958198C4.2005 1.9875 7.70489 5.15468 8.84177 8.1338L7.67674 2.43907Z" fill="#D5D5D4"/>
</svg>
